PathFileType	4	(X/Y/Z)	s01c0001.trc
DataRate	CameraRate	NumFrames	NumMarkers	Units	OrigDataRate	OrigDataStartFrame	OrigNumFrames
200	200	4	49	mm	200	250	2000
Frame#	Time	racr			lacr			c7			jug			rlel			rdr			llel			ldr			s2			lic			ric			lasi			rasi			rpsi			lpsi			rgt			lgt			rth1			rth2			rth3			rth4			rlfc			rmfc			rsh1			rsh2			rsh3			rsh4			rlmal			rmmal			rcal			rtoe			rmt5			rmt1			lth1			lth2			lth4			lth3			llfc			lmfc			lsh1			lsh2			lsh3			lsh4			llmal			lmmal			lcal			ltoe			lmt1			lmt5			
		X1	Y1	Z1	X2	Y2	Z2	X3	Y3	Z3	X4	Y4	Z4	X5	Y5	Z5	X6	Y6	Z6	X7	Y7	Z7	X8	Y8	Z8	X9	Y9	Z9	X10	Y10	Z10	X11	Y11	Z11	X12	Y12	Z12	X13	Y13	Z13	X14	Y14	Z14	X15	Y15	Z15	X16	Y16	Z16	X17	Y17	Z17	X18	Y18	Z18	X19	Y19	Z19	X20	Y20	Z20	X21	Y21	Z21	X22	Y22	Z22	X23	Y23	Z23	X24	Y24	Z24	X25	Y25	Z25	X26	Y26	Z26	X27	Y27	Z27	X28	Y28	Z28	X29	Y29	Z29	X30	Y30	Z30	X31	Y31	Z31	X32	Y32	Z32	X33	Y33	Z33	X34	Y34	Z34	X35	Y35	Z35	X36	Y36	Z36	X37	Y37	Z37	X38	Y38	Z38	X39	Y39	Z39	X40	Y40	Z40	X41	Y41	Z41	X42	Y42	Z42	X43	Y43	Z43	X44	Y44	Z44	X45	Y45	Z45	X46	Y46	Z46	X47	Y47	Z47	X48	Y48	Z48	X49	Y49	Z49	
250	1.2500	488.905212	1502.903320	-347.053223	300.321503	1480.593506	-687.262024	370.400635	1530.274902	-498.259766	503.701813	1460.244263	-563.399048	552.178833	1256.890503	-181.584320	714.063782	1063.694336	-70.073036	204.637451	1207.588867	-781.783203	210.461227	1001.619751	-951.453064	337.065399	1019.825012	-457.437378	363.894836	1089.037842	-675.059265	541.246094	1062.503662	-390.813995	416.507965	1025.894531	-677.458252	569.833313	1015.127502	-443.192871	379.575562	1050.515015	-419.818054	323.635834	1053.704956	-509.704712	512.976501	928.341431	-358.324982	333.498657	922.569702	-680.259094	534.725891	809.006714	-348.405487	540.663513	726.959656	-358.222809	534.480774	637.359619	-373.594940	578.629211	730.861450	-397.715240	504.600250	517.117859	-386.601196	444.360168	492.934601	-475.405304	490.496216	401.489990	-338.015656	485.283081	317.361206	-343.273254	469.581482	229.008591	-352.300354	510.118835	317.005402	-399.705261	447.294525	98.905113	-371.234192	447.509308	122.386742	-459.204193	393.804749	67.874619	-415.798828	651.924133	91.778419	-492.185577	581.400879	50.562317	-391.127258	561.303223	62.385254	-504.445312	318.194397	803.204468	-686.778381	338.150970	717.026001	-687.370117	387.942535	727.342651	-706.953186	354.347900	633.952393	-675.137695	362.679474	520.285034	-652.405151	390.812439	489.297974	-545.548401	304.687073	409.643066	-665.121704	303.253815	322.955017	-656.484863	304.392242	237.976639	-638.836731	365.982452	322.556824	-654.217590	317.355133	104.732773	-620.088318	382.680206	116.273781	-558.583008	304.865387	64.515572	-560.201904	543.333679	97.117096	-692.418030	498.198883	65.808876	-617.355713	426.181427	57.417953	-707.029907	
251	1.2550	488.985718	1502.905396	-347.073090	300.365356	1480.607666	-687.246765	370.453949	1530.259155	-498.234589	503.785736	1460.236450	-563.429321	552.276978	1256.912964	-181.591431	714.126038	1063.695435	-70.078568	204.705612	1207.581299	-781.767090	210.503006	1001.600037	-951.434875	337.128601	1019.830139	-457.438873	363.944641	1089.039185	-675.071106	541.309265	1062.506104	-390.830383	416.540283	1025.891846	-677.476440	569.876892	1015.121216	-443.204254	379.621826	1050.515747	-419.821869	323.685059	1053.714233	-509.704712	513.054321	928.350708	-358.342346	333.542847	922.568665	-680.267639	534.797791	809.007141	-348.440338	540.715881	726.944397	-358.249939	534.504822	637.359009	-373.609436	578.665161	730.838989	-397.734131	504.644989	517.106628	-386.610229	444.390167	492.927917	-475.411469	490.522522	401.471252	-338.034088	485.321106	317.382874	-343.304749	469.584656	229.003052	-352.306580	510.151154	317.009888	-399.715759	447.281586	98.909073	-371.258148	447.509674	122.384491	-459.205109	393.797028	67.882401	-415.791779	651.924072	91.778526	-492.184937	581.402954	50.562881	-391.126648	561.299805	62.378876	-504.442719	318.223480	803.212769	-686.775757	338.185486	717.036194	-687.375366	387.976288	727.337280	-706.948792	354.368469	633.951965	-675.137451	362.710846	520.278870	-652.408325	390.830872	489.283844	-545.546631	304.695312	409.646942	-665.120972	303.250427	322.952911	-656.479919	304.396149	237.983765	-638.836121	365.992493	322.561279	-654.219849	317.363312	104.728096	-620.079834	382.658630	116.263756	-558.559875	304.840759	64.510025	-560.210083	543.341248	97.109940	-692.418030	498.214478	65.811005	-617.348206	426.187927	57.424793	-707.017700	
252	1.2600	489.065674	1502.900146	-347.088409	300.453857	1480.598389	-687.251282	370.539948	1530.279663	-498.210876	503.838562	1460.237671	-563.420959	552.356140	1256.902222	-181.608734	714.192932	1063.695679	-70.103134	204.807541	1207.517822	-781.837524	210.566528	1001.588013	-951.416077	337.175262	1019.823181	-457.445038	363.990082	1089.042725	-675.084229	541.377808	1062.478638	-390.836090	416.592987	1025.887573	-677.486206	569.955017	1015.130981	-443.203125	379.695557	1050.503784	-419.828949	323.726196	1053.721802	-509.698486	513.113037	928.344238	-358.344757	333.567413	922.578125	-680.257385	534.835754	809.009399	-348.452881	540.777039	726.946411	-358.263519	534.543762	637.352783	-373.621490	578.714722	730.833496	-397.750458	504.678558	517.121765	-386.609253	444.430908	492.943756	-475.433167	490.548340	401.472565	-338.034668	485.319855	317.364471	-343.296082	469.592957	229.006302	-352.309906	510.171753	317.015961	-399.724854	447.293457	98.904694	-371.246887	447.508148	122.380974	-459.204834	393.806458	67.865219	-415.795837	651.925537	91.773872	-492.187347	581.399292	50.564381	-391.139618	561.297974	62.375099	-504.441254	318.252991	803.217529	-686.771851	338.208160	717.036255	-687.363220	388.004517	727.335999	-706.944458	354.386841	633.953674	-675.135254	362.742065	520.277771	-652.400757	390.859070	489.291748	-545.547729	304.712646	409.659882	-665.115601	303.268158	322.962067	-656.485596	304.399780	237.988663	-638.833191	366.005249	322.565796	-654.220337	317.366516	104.725052	-620.076416	382.675262	116.267769	-558.566467	304.868073	64.502899	-560.197571	543.341125	97.110748	-692.416687	498.214722	65.810921	-617.348083	426.173798	57.421795	-707.027222	
253	1.2650	489.145142	1502.889038	-347.100708	300.511353	1480.608398	-687.260803	370.602203	1530.278198	-498.229523	503.885590	1460.241089	-563.443726	552.430725	1256.915161	-181.605835	714.265991	1063.692871	-70.095085	204.869522	1207.521851	-781.820679	210.615692	1001.566040	-951.392029	337.244995	1019.809814	-457.437744	364.040619	1089.045166	-675.090759	541.429688	1062.477783	-390.848846	416.634613	1025.886108	-677.500793	570.009766	1015.108276	-443.231384	379.758240	1050.510376	-419.838104	323.780701	1053.736206	-509.706757	513.165710	928.335388	-358.371277	333.609100	922.585205	-680.266602	534.875427	809.026733	-348.453156	540.834106	726.951721	-358.291473	534.616089	637.346375	-373.654785	578.756592	730.848938	-397.767944	504.705444	517.097656	-386.627502	444.457397	492.945068	-475.437927	490.586426	401.472260	-338.044983	485.362885	317.389191	-343.309143	469.619904	228.999329	-352.329529	510.191162	317.003540	-399.730652	447.281250	98.916817	-371.235992	447.509338	122.382324	-459.204468	393.816132	67.862350	-415.800262	651.923950	91.774658	-492.193268	581.414368	50.551720	-391.131226	561.301270	62.373184	-504.443542	318.283264	803.220337	-686.768799	338.229736	717.042969	-687.370850	388.036499	727.331238	-706.942810	354.411560	633.951721	-675.130981	362.766327	520.281494	-652.408081	390.882904	489.297302	-545.548157	304.734711	409.662842	-665.105652	303.281128	322.960663	-656.474121	304.401764	237.997971	-638.830261	366.021515	322.569916	-654.217773	317.356995	104.720253	-620.072266	382.669983	116.277954	-558.553955	304.859497	64.518372	-560.209290	543.329834	97.100594	-692.408325	498.214844	65.811073	-617.350220	426.180450	57.427521	-707.026428	
